External Loads File
version=1
nRows=62
nColumns=13
Range=5.000000e-03-10 seconds
endheader
time 	forceRightX 	forceRightY 	forceRightZ 	pointRightX 	pointRightY 	pointRightZ 	forceLeftX 	forceLeftY 	forceLeftZ 	pointLeftX 	pointLeftY 	pointLeftZ 		
7.505000 11.094838 81.538026 -0.000000 0.194463 0.475483 -0.163232 47.674518 561.545780 -0.000000 0.289853 0.161586 -0.401529
7.510000 12.063586 93.735021 -0.000000 0.203374 0.480245 -0.163460 59.411495 567.833479 -0.000000 0.280576 0.157598 -0.401476
7.515000 12.759684 105.366023 -0.000000 0.212000 0.484288 -0.163805 70.366477 572.449177 -0.000000 0.271112 0.154246 -0.401430
7.520000 13.147422 115.907848 -0.000000 0.220993 0.487824 -0.163748 81.878864 574.545720 -0.000000 0.261399 0.151445 -0.401367
7.525000 12.831410 125.017948 -0.000000 0.229704 0.490888 -0.163885 92.744824 573.547922 -0.000000 0.251490 0.149414 -0.401220
7.530000 11.955244 132.484004 -0.000000 0.238734 0.493188 -0.163751 103.760187 568.563896 -0.000000 0.241480 0.148092 -0.401066
7.535000 10.334419 138.309273 -0.000000 0.247430 0.494945 -0.163768 113.614829 559.028945 -0.000000 0.231430 0.147468 -0.400855
7.540000 8.130356 142.582922 -0.000000 0.255919 0.496012 -0.163562 122.128575 544.254301 -0.000000 0.221387 0.147623 -0.400590
7.545000 5.586347 145.456280 -0.000000 0.264407 0.496364 -0.163538 129.128865 523.730584 -0.000000 0.211405 0.148394 -0.400323
7.550000 2.812874 147.134903 -0.000000 0.272758 0.496062 -0.163621 133.916280 497.459954 -0.000000 0.201519 0.149881 -0.400101
7.555000 -0.131311 147.875160 -0.000000 0.280849 0.495144 -0.163723 135.817406 465.964605 -0.000000 0.191838 0.152130 -0.399914
7.560000 -3.165713 147.995470 -0.000000 0.288637 0.493601 -0.163852 134.477316 430.166918 -0.000000 0.182368 0.154936 -0.399728
7.565000 -6.201439 147.895403 -0.000000 0.296258 0.491379 -0.163916 129.816201 391.295274 -0.000000 0.173258 0.158418 -0.399604
7.570000 -9.198574 148.057398 -0.000000 0.303674 0.488404 -0.163874 121.910734 350.858852 -0.000000 0.164438 0.162545 -0.399624
7.575000 -12.390443 148.984792 -0.000000 0.310783 0.484784 -0.163829 110.575267 310.748291 -0.000000 0.156226 0.167166 -0.399485
7.580000 -15.822431 151.159665 -0.000000 0.317563 0.480405 -0.164064 96.531238 272.681540 -0.000000 0.148595 0.172260 -0.399494
7.585000 -19.401284 155.013020 -0.000000 0.324316 0.475393 -0.163829 80.968544 238.086366 -0.000000 0.141377 0.177889 -0.399476
7.590000 -23.434462 160.838174 -0.000000 0.330604 0.469726 -0.163795 64.542446 208.215437 -0.000000 0.134661 0.183885 -0.399482
7.595000 -27.851762 168.858156 -0.000000 0.336569 0.463389 -0.163722 48.559141 183.615445 -0.000000 0.128260 0.190324 -0.399547
7.600000 -32.829623 179.112450 -0.000000 0.342092 0.456483 -0.163501 33.860186 164.487959 -0.000000 0.122234 0.197180 -0.399596
7.605000 -38.103161 191.535530 -0.000000 0.347591 0.448908 -0.163175 21.442185 150.573981 -0.000000 0.116466 0.204517 -0.399648
7.610000 -43.952798 205.782487 -0.000000 0.352532 0.440958 -0.163054 11.475840 141.452594 -0.000000 0.110975 0.212300 -0.399635
7.615000 -50.084061 221.479403 -0.000000 0.357292 0.432408 -0.162938 4.342281 136.470703 -0.000000 0.105827 0.220377 -0.399668
7.620000 -56.048259 238.203961 -0.000000 0.361643 0.422974 -0.162690 0.270448 134.949077 -0.000000 0.101086 0.229019 -0.399645
7.625000 -62.073236 255.346646 -0.000000 0.365642 0.413542 -0.162470 -1.056144 136.177874 -0.000000 0.096673 0.237994 -0.399577
7.630000 -67.718505 272.494889 -0.000000 0.369476 0.403856 -0.162399 0.272045 139.381247 -0.000000 0.092709 0.247228 -0.399610
7.635000 -72.951354 289.253799 -0.000000 0.372463 0.393942 -0.162166 3.782987 143.745166 -0.000000 0.089182 0.256737 -0.399534
7.640000 -77.313516 305.503531 -0.000000 0.375118 0.383849 -0.161944 9.152873 148.488336 -0.000000 0.086060 0.266510 -0.399510
7.645000 -80.759966 321.198729 -0.000000 0.377317 0.373571 -0.161819 15.848490 152.945684 -0.000000 0.083397 0.276461 -0.399486
7.650000 -83.095959 336.477864 -0.000000 0.379028 0.363082 -0.161745 23.421036 156.631125 -0.000000 0.081246 0.286658 -0.399515
7.655000 -84.432575 351.478940 -0.000000 0.380189 0.352562 -0.161579 31.312920 159.323979 -0.000000 0.079582 0.297081 -0.399562
7.660000 -84.879663 366.325491 -0.000000 0.380679 0.342001 -0.161481 39.071765 161.056085 -0.000000 0.078414 0.307558 -0.399493
7.665000 -84.132450 381.158405 -0.000000 0.380808 0.331265 -0.161360 46.553851 161.960991 -0.000000 0.077789 0.318072 -0.399486
7.670000 -82.320971 395.897571 -0.000000 0.380570 0.320627 -0.160949 53.496432 162.243083 -0.000000 0.077720 0.328663 -0.399490
7.675000 -78.910769 410.438302 -0.000000 0.379442 0.309929 -0.161090 59.931712 161.970699 -0.000000 0.078318 0.339309 -0.399422
7.680000 -74.347193 424.326148 -0.000000 0.378349 0.299385 -0.159995 65.514906 161.278876 -0.000000 0.079357 0.349789 -0.399420
7.685000 -67.756120 437.318107 -0.000000 0.376028 0.288811 -0.160840 70.457734 160.071786 -0.000000 0.080948 0.360240 -0.399704
7.690000 -59.640253 449.026242 -0.000000 0.373474 0.278468 -0.160452 74.509846 158.476001 -0.000000 0.083115 0.370761 -0.399620
7.695000 -50.819937 459.242668 -0.000000 0.370506 0.268276 -0.160548 77.432713 156.723739 -0.000000 0.085827 0.380876 -0.399534
7.700000 -41.516866 468.036019 -0.000000 0.366954 0.258488 -0.160488 79.304529 154.973294 -0.000000 0.089110 0.390823 -0.399670
7.705000 -32.119763 475.570026 -0.000000 0.362914 0.248903 -0.160184 80.201945 153.379655 -0.000000 0.092873 0.400464 -0.399626
7.710000 -22.844015 482.099800 -0.000000 0.358416 0.239586 -0.160123 80.279089 151.989739 -0.000000 0.097203 0.409971 -0.399870
7.715000 -14.713243 487.917423 -0.000000 0.353500 0.230618 -0.160021 79.433695 150.876006 -0.000000 0.101857 0.419115 -0.399776
7.720000 -7.726998 493.423170 -0.000000 0.348166 0.222038 -0.159922 77.849963 149.849890 -0.000000 0.107050 0.427924 -0.399843
7.725000 -1.795252 498.990695 -0.000000 0.342449 0.213751 -0.159496 75.655741 148.707206 -0.000000 0.112625 0.436519 -0.399614
7.730000 3.395795 504.882676 -0.000000 0.336311 0.205725 -0.159390 72.974296 147.300632 -0.000000 0.118771 0.444731 -0.399138
7.735000 7.534815 511.183087 -0.000000 0.329757 0.198187 -0.159324 69.722479 145.706506 -0.000000 0.125123 0.452458 -0.399125
7.740000 11.599091 517.754160 -0.000000 0.322836 0.191189 -0.159245 66.200262 143.899249 -0.000000 0.132126 0.459691 -0.399398
7.745000 15.196309 524.262136 -0.000000 0.315499 0.184697 -0.159145 62.328428 142.001201 -0.000000 0.138986 0.466417 -0.399067
7.750000 19.453391 530.129365 -0.000000 0.307796 0.178535 -0.159068 58.447143 139.842955 -0.000000 0.146140 0.472638 -0.399132
7.755000 24.677688 534.604236 -0.000000 0.299820 0.172989 -0.158894 54.660185 137.292809 -0.000000 0.153833 0.478246 -0.399230
7.760000 30.674819 536.804448 -0.000000 0.291527 0.167913 -0.158711 50.937742 134.246821 -0.000000 0.161582 0.483375 -0.399181
7.765000 37.685650 535.741538 -0.000000 0.282801 0.163386 -0.159000 47.347375 130.599886 -0.000000 0.169464 0.488019 -0.399184
7.770000 44.967932 530.519278 -0.000000 0.274042 0.159530 -0.158858 43.717458 126.433161 -0.000000 0.177527 0.492023 -0.399336
7.775000 52.660662 520.341758 -0.000000 0.265091 0.156134 -0.158634 40.137316 121.817080 -0.000000 0.185821 0.495452 -0.399538
7.780000 59.623717 504.813984 -0.000000 0.256075 0.153487 -0.158393 36.435212 116.932405 -0.000000 0.194049 0.498181 -0.399742
7.785000 65.646064 483.823147 -0.000000 0.247074 0.151444 -0.158378 32.660572 111.864200 -0.000000 0.202392 0.500043 -0.399967
7.790000 70.381850 457.645168 -0.000000 0.238079 0.150163 -0.158296 28.815466 106.659694 -0.000000 0.210811 0.501434 -0.400121
7.795000 73.369842 426.963554 -0.000000 0.229137 0.149391 -0.158289 24.863298 101.296997 -0.000000 0.219215 0.502305 -0.400281
7.800000 74.451870 392.774656 -0.000000 0.220274 0.149413 -0.158254 20.803311 95.702532 -0.000000 0.227622 0.502601 -0.400565
7.805000 73.642394 356.296164 -0.000000 0.211462 0.149919 -0.158097 16.612392 89.846644 -0.000000 0.235997 0.502183 -0.400869
7.810000 70.876654 318.904591 -0.000000 0.202979 0.151161 -0.158035 12.178415 83.805521 -0.000000 0.244375 0.501136 -0.401104
